<?xml version="1.0" encoding="UTF-8"?>
<svg xmlns="http://www.w3.org/2000/svg" width="1750" height="1000" xmlns:xlink="http://www.w3.org/1999/xlink" viewBox="0 0 1750 1000">
  <defs>
    <style>
      .cls-1 {
        fill: none;
      }

      .cls-2 {
        clip-path: url(#clippath);
      }

      .cls-3 {
        fill: #020101;
      }

      .cls-4 {
        fill: #fff;
      }

      .cls-5 {
        fill: #f09c28;
      }

      .cls-6 {
        fill: #9ec8ea;
      }

      .cls-7 {
        fill: #e24f9b;
      }

      .cls-8 {
        fill: url(#linear-gradient);
        mix-blend-mode: overlay;
        opacity: .5;
      }

      .cls-9 {
        isolation: isolate;
      }
    </style>
    <clipPath id="clippath">
      <rect class="cls-1" width="1750" height="1000"/>
    </clipPath>
    <linearGradient id="linear-gradient" x1="0" y1="500" x2="1750" y2="500" gradientUnits="userSpaceOnUse">
      <stop offset="0" stop-color="#fff"/>
      <stop offset="1" stop-color="#000"/>
    </linearGradient>
  </defs>
  <g class="cls-9">
    <g id="Layer_2" data-name="Layer 2">
      <g id="Layer_2-2" data-name="Layer 2">
        <g class="cls-2">
          <rect class="cls-3" width="1750" height="1000"/>
          <path class="cls-5" d="m290.73,8.32V0h-9.01v8.32c0,65.42-53.22,118.64-118.64,118.64H0v9.01h163.08c70.38,0,127.65-57.26,127.65-127.65Z"/>
          <path class="cls-6" d="m269.7,8.32V0h-9.01v8.32c0,53.82-43.79,97.61-97.61,97.61H0v9.01h163.08c58.79,0,106.62-47.83,106.62-106.62Z"/>
          <path class="cls-7" d="m227.66,8.32V0h-9.01v8.32c0,30.64-24.93,55.56-55.56,55.56H0v9.01h163.08c35.6,0,64.57-28.97,64.57-64.57Z"/>
          <path class="cls-4" d="m206.63,8.32V0h-9.01v8.32c0,19.05-15.5,34.54-34.54,34.54H0v9.01h163.08c24.01,0,43.55-19.54,43.55-43.55Z"/>
          <g>
            <path class="cls-5" d="m1485.22,530.58h-250.45v9.01h250.45c77.01,0,139.66,62.65,139.66,139.66v190.09h9.01v-190.09c0-81.98-66.69-148.67-148.67-148.67Z"/>
            <path class="cls-6" d="m1485.22,551.6h-250.45v9.01h250.45c65.42,0,118.64,53.22,118.64,118.64v190.09h9.01v-190.09c0-70.39-57.26-127.65-127.65-127.65Z"/>
            <path class="cls-4" d="m1485.22,614.67h-250.45v9.01h250.45c30.64,0,55.56,24.92,55.56,55.56v190.09h9.01v-190.09c0-35.61-28.97-64.57-64.57-64.57Z"/>
            <path class="cls-7" d="m1485.22,635.7h-250.45v9.01h250.45c19.05,0,34.54,15.49,34.54,34.54v190.09h9.01v-190.09c0-24.02-19.54-43.55-43.55-43.55Z"/>
          </g>
          <path class="cls-7" d="m579.16,558.49v-215.29h-9.01v215.29c0,81.98,66.69,148.67,148.67,148.67h218.61v-9.01h-218.61c-77.01,0-139.66-62.65-139.66-139.66Z"/>
          <path class="cls-4" d="m600.19,558.49v-215.29h-9.01v215.29c0,70.38,57.26,127.65,127.65,127.65h218.61v-9.01h-218.61c-65.42,0-118.64-53.22-118.64-118.64Z"/>
          <path class="cls-6" d="m663.26,558.49v-215.29h-9.01v215.29c0,35.61,28.97,64.57,64.57,64.57h218.61v-9.01h-218.61c-30.64,0-55.56-24.93-55.56-55.56Z"/>
          <path class="cls-5" d="m684.28,558.49v-215.29h-9.01v215.29c0,24.01,19.53,43.55,43.55,43.55h218.61v-9.01h-218.61c-19.05,0-34.54-15.49-34.54-34.54Z"/>
          <g>
            <path class="cls-4" d="m1225.76,826.69c0,77.01-62.65,139.66-139.66,139.66s-139.66-62.65-139.66-139.66v-366.97c0-24.01-19.53-43.55-43.55-43.55s-43.55,19.54-43.55,43.55v133.29h9.01v-133.29c0-19.05,15.5-34.54,34.54-34.54s34.54,15.49,34.54,34.54v366.97c0,81.98,66.7,148.67,148.67,148.67s148.67-66.69,148.67-148.67v-339.93h-9.01v339.93Z"/>
            <path class="cls-7" d="m1204.74,826.69c0,65.42-53.22,118.64-118.64,118.64s-118.64-53.22-118.64-118.64v-366.97c0-35.61-28.97-64.57-64.57-64.57s-64.57,28.97-64.57,64.57v133.29h9.01v-133.29c0-30.64,24.93-55.56,55.56-55.56s55.56,24.93,55.56,55.56v366.97c0,70.39,57.27,127.65,127.65,127.65s127.65-57.26,127.65-127.65v-339.93h-9.01v339.93Z"/>
            <path class="cls-5" d="m1141.66,826.69c0,30.64-24.93,55.56-55.56,55.56s-55.56-24.92-55.56-55.56v-366.97c0-70.38-57.26-127.65-127.65-127.65s-127.65,57.26-127.65,127.65v133.29h9.01v-133.29c0-65.42,53.22-118.64,118.64-118.64s118.64,53.22,118.64,118.64v366.97c0,35.61,28.97,64.57,64.57,64.57s64.57-28.97,64.57-64.57v-339.93h-9.01v339.93Z"/>
            <path class="cls-6" d="m1120.64,826.69c0,19.05-15.49,34.54-34.54,34.54s-34.54-15.49-34.54-34.54v-366.97c0-81.98-66.69-148.67-148.67-148.67s-148.67,66.69-148.67,148.67v133.29h9.01v-133.29c0-77.01,62.65-139.66,139.66-139.66s139.66,62.65,139.66,139.66v366.97c0,24.02,19.54,43.55,43.55,43.55s43.55-19.53,43.55-43.55v-339.93h-9.01v339.93Z"/>
          </g>
          <path class="cls-6" d="m1736.62,574.13c-77.01,0-139.66-62.65-139.66-139.66V147.85h-9.01v286.62c0,81.98,66.69,148.67,148.67,148.67,4.51,0,8.97-.24,13.38-.63v-9.03c-4.41.42-8.87.66-13.38.66Z"/>
          <path class="cls-5" d="m1736.62,553.1c-65.42,0-118.64-53.22-118.64-118.64V147.85h-9.01v286.62c0,70.38,57.26,127.65,127.65,127.65,4.52,0,8.98-.25,13.38-.7v-9.08c-4.4.49-8.86.77-13.38.77Z"/>
          <path class="cls-7" d="m1736.62,490.03c-30.64,0-55.56-24.93-55.56-55.56V147.85h-9.01v286.62c0,35.61,28.97,64.57,64.57,64.57,4.59,0,9.06-.5,13.38-1.41v-9.29c-4.29,1.07-8.76,1.7-13.38,1.7Z"/>
          <path class="cls-4" d="m1736.62,469c-19.05,0-34.54-15.49-34.54-34.54V147.85h-9.01v286.62c0,24.01,19.53,43.55,43.55,43.55,4.67,0,9.16-.76,13.38-2.12v-9.58c-4.12,1.74-8.64,2.7-13.38,2.7Z"/>
          <path class="cls-6" d="m526.5,800c0,77.01-62.65,139.66-139.66,139.66s-139.66-62.65-139.66-139.66v-179.48h-9.01v179.48c0,81.98,66.69,148.67,148.67,148.67s148.67-66.7,148.67-148.67v-456.8h-9.01v456.8Z"/>
          <path class="cls-5" d="m505.47,800c0,65.42-53.22,118.64-118.64,118.64s-118.64-53.22-118.64-118.64v-179.48h-9.01v179.48c0,70.38,57.27,127.65,127.65,127.65s127.65-57.26,127.65-127.65v-456.8h-9.01v456.8Z"/>
          <path class="cls-7" d="m442.4,800c0,30.64-24.92,55.56-55.56,55.56s-55.56-24.92-55.56-55.56v-179.48h-9.01v179.48c0,35.6,28.97,64.57,64.57,64.57s64.57-28.97,64.57-64.57v-456.8h-9.01v456.8Z"/>
          <path class="cls-4" d="m421.38,800c0,19.04-15.49,34.54-34.54,34.54s-34.54-15.5-34.54-34.54v-179.48h-9.01v179.48c0,24.01,19.54,43.55,43.55,43.55s43.55-19.54,43.55-43.55v-456.8h-9.01v456.8Z"/>
          <path class="cls-6" d="m181.71,515.44h239.64v-9.01h-239.64c-81.98,0-148.67,66.69-148.67,148.67v344.9h9.01v-344.9c0-77.01,62.65-139.66,139.66-139.66Z"/>
          <path class="cls-5" d="m181.71,536.46h239.64v-9.01h-239.64c-70.38,0-127.65,57.26-127.65,127.65v344.9h9.01v-344.9c0-65.42,53.22-118.64,118.64-118.64Z"/>
          <path class="cls-7" d="m181.71,599.53h239.64v-9.01h-239.64c-35.6,0-64.57,28.97-64.57,64.57v344.9h9.01v-344.9c0-30.64,24.93-55.56,55.56-55.56Z"/>
          <path class="cls-4" d="m181.71,620.56h239.64v-9.01h-239.64c-24.01,0-43.55,19.54-43.55,43.55v344.9h9.01v-344.9c0-19.05,15.5-34.54,34.54-34.54Z"/>
          <g>
            <path class="cls-6" d="m706.78,880.35c0-19.05,15.49-34.54,34.54-34.54s34.54,15.49,34.54,34.54v119.65h9.01v-119.65c0-24.01-19.54-43.55-43.55-43.55s-43.55,19.54-43.55,43.55v119.65h9.01v-119.65Z"/>
            <path class="cls-7" d="m685.75,880.35c0-30.64,24.93-55.56,55.56-55.56s55.56,24.92,55.56,55.56v119.65h9.01v-119.65c0-35.61-28.97-64.57-64.57-64.57s-64.57,28.97-64.57,64.57v119.65h9.01v-119.65Z"/>
            <path class="cls-5" d="m622.68,880.35c0-65.42,53.22-118.64,118.64-118.64s118.64,53.22,118.64,118.64v119.65h9.01v-119.65c0-70.38-57.26-127.65-127.65-127.65s-127.65,57.26-127.65,127.65v119.65h9.01v-119.65Z"/>
            <path class="cls-6" d="m601.66,880.35c0-77.01,62.65-139.66,139.66-139.66s139.66,62.65,139.66,139.66v119.65h9.01v-119.65c0-81.98-66.69-148.67-148.67-148.67s-148.67,66.69-148.67,148.67v119.65h9.01v-119.65Z"/>
          </g>
          <path class="cls-6" d="m259.12,342.59c0-85.84-69.84-155.68-155.68-155.68H0v9.01h103.44c80.87,0,146.67,65.8,146.67,146.67s-65.8,146.67-146.67,146.67H0v9.01h103.44c85.84,0,155.68-69.84,155.68-155.68Z"/>
          <path class="cls-5" d="m238.1,342.59c0-74.25-60.41-134.66-134.66-134.66H0v9.01h103.44c69.28,0,125.65,56.36,125.65,125.65s-56.36,125.64-125.65,125.64H0v9.01h103.44c74.25,0,134.66-60.4,134.66-134.65Z"/>
          <path class="cls-7" d="m175.02,342.59c0-39.47-32.11-71.58-71.58-71.58H0v9.01h103.44c34.5,0,62.57,28.07,62.57,62.57s-28.07,62.57-62.57,62.57H0v9.01h103.44c39.47,0,71.58-32.11,71.58-71.58Z"/>
          <path class="cls-4" d="m154,342.59c0-27.88-22.68-50.56-50.56-50.56H0v9.01h103.44c22.91,0,41.55,18.64,41.55,41.55s-18.64,41.55-41.55,41.55H0v9.01h103.44c27.88,0,50.56-22.68,50.56-50.56Z"/>
          <g>
            <path class="cls-4" d="m1693.07,869.35h-257.07c-19.04,0-34.54-15.49-34.54-34.54s15.5-34.54,34.54-34.54h83.72v-9.01h-83.72c-24.01,0-43.55,19.54-43.55,43.55s19.54,43.55,43.55,43.55h257.07c20.27,0,39.53,4.38,56.93,12.18v-9.84c-17.55-7.3-36.77-11.35-56.93-11.35Z"/>
            <path class="cls-5" d="m1693.07,953.45h-257.07c-65.41,0-118.64-53.22-118.64-118.64s53.22-118.64,118.64-118.64h83.99v-9.01h-83.99c-70.38,0-127.65,57.26-127.65,127.65s57.26,127.65,127.65,127.65h257.07c24.32,0,45,15.73,52.5,37.54h4.42v-12.4c-10.9-20.3-32.32-34.15-56.93-34.15Z"/>
            <path class="cls-6" d="m1693.07,974.47h-257.07c-77.01,0-139.66-62.65-139.66-139.66s62.65-139.66,139.66-139.66h83.72v-9.01h-83.72c-81.98,0-148.67,66.69-148.67,148.67s66.7,148.67,148.67,148.67h257.07c12.44,0,23.33,6.63,29.41,16.52h10.19c-6.87-15.04-22.01-25.53-39.6-25.53Z"/>
            <path class="cls-7" d="m1436,890.37c-30.64,0-55.56-24.92-55.56-55.56s24.92-55.56,55.56-55.56h83.72v-9.01h-83.72c-35.6,0-64.57,28.97-64.57,64.57s28.97,64.57,64.57,64.57h257.07c20.62,0,40.02,5.3,56.93,14.58v-10.15c-17.15-8.58-36.48-13.45-56.93-13.45h-257.07Z"/>
          </g>
          <path class="cls-4" d="m1702.35,138.85h-270.86c-24.01,0-43.55,19.54-43.55,43.55v6.98h9.01v-6.98c0-19.05,15.5-34.54,34.54-34.54h270.86c16.67,0,32.68-2.8,47.65-7.88v-9.51c-14.88,5.42-30.92,8.38-47.65,8.38Z"/>
          <path class="cls-7" d="m1702.35,96.8h-270.86c-47.2,0-85.6,38.4-85.6,85.6v6.98h9.01v-6.98c0-42.23,34.36-76.59,76.59-76.59h270.86c17.12,0,33.3-4.08,47.65-11.28v-10.2c-14.11,7.92-30.35,12.46-47.65,12.46Z"/>
          <path class="cls-5" d="m1702.35,54.75h-270.86c-70.38,0-127.65,57.26-127.65,127.65v6.98h9.01v-6.98c0-65.42,53.22-118.64,118.64-118.64h270.86c18.87,0,35.83-8.19,47.65-21.14v-14.99c-9.72,16.21-27.41,27.12-47.65,27.12Z"/>
          <path class="cls-6" d="m1702.35,33.73h-270.86c-81.98,0-148.67,66.69-148.67,148.67v6.98h9.01v-6.98c0-77.01,62.65-139.66,139.66-139.66h270.86c23.74,0,43.07-19.1,43.51-42.74h-9.01c-.43,18.67-15.72,33.73-34.5,33.73Z"/>
          <path class="cls-7" d="m579.16,229.07v-17.87c0-9.03,0-13.91-.27-16.67h.27c0-24.01-19.54-43.55-43.55-43.55h-123.69c-24.02,0-43.55,19.54-43.55,43.55s19.53,43.55,43.55,43.55h273.86c24.01,0,43.55-19.54,43.55-43.55V0h-9.01v194.53c0,19.05-15.5,34.54-34.54,34.54h-273.86c-19.05,0-34.54-15.49-34.54-34.54s15.49-34.54,34.54-34.54h123.69c19.04,0,34.54,15.49,34.54,34.54v34.54"/>
          <path class="cls-4" d="m685.78,250.09h-273.86c-30.64,0-55.56-24.93-55.56-55.56s24.93-55.56,55.56-55.56h123.69c30.64,0,55.56,24.93,55.56,55.56v34.54h9.01v-17.87c0-9.03,0-13.91-.27-16.67h.27c0-35.61-28.97-64.57-64.57-64.57h-123.69c-35.61,0-64.57,28.97-64.57,64.57s28.97,64.57,64.57,64.57h273.86c35.6,0,64.57-28.97,64.57-64.57V0h-9.01v194.53c0,30.64-24.93,55.56-55.56,55.56Z"/>
          <path class="cls-6" d="m685.78,313.17h-273.86c-65.42,0-118.64-53.22-118.64-118.64s53.22-118.64,118.64-118.64h123.69c65.41,0,118.64,53.22,118.64,118.64v34.54h9.01v-17.58c0-9.21,0-14.17-.28-16.96h.28c0-70.38-57.27-127.65-127.65-127.65h-123.69c-70.39,0-127.65,57.26-127.65,127.65s57.26,127.65,127.65,127.65h273.86c70.38,0,127.65-57.26,127.65-127.65V0h-9.01v194.53c0,65.42-53.22,118.64-118.64,118.64Z"/>
          <path class="cls-5" d="m685.78,334.19h-273.86c-77.01,0-139.66-62.65-139.66-139.66s62.65-139.66,139.66-139.66h123.69c77.01,0,139.66,62.65,139.66,139.66v3.02c0,8.51-.08,31.52-.08,31.52h9.01l.08-29.02c0-2.47,0-4.23-.09-5.52h.09c0-81.98-66.69-148.67-148.67-148.67h-123.69c-81.98,0-148.67,66.69-148.67,148.67s66.69,148.67,148.67,148.67h273.86c81.98,0,148.67-66.69,148.67-148.67V0h-9.01v194.53c0,77.01-62.65,139.66-139.66,139.66Z"/>
          <path class="cls-6" d="m1398.73,381.63c24.01,0,43.55-19.54,43.55-43.55s-19.54-43.55-43.55-43.55h-369.97c-77.01,0-139.66-62.65-139.66-139.66S951.75,15.21,1028.76,15.21h99.66c13.19,0,25-5.92,33-15.21h-13.31c-5.59,3.9-12.37,6.2-19.69,6.2h-99.66c-81.98,0-148.67,66.69-148.67,148.67s66.69,148.67,148.67,148.67h369.97c19.04,0,34.54,15.49,34.54,34.54s-15.5,34.54-34.54,34.54h-375.47c2.13,2.93,4.15,5.93,6.06,9.01h369.41Z"/>
          <path class="cls-5" d="m1398.73,402.65c35.6,0,64.57-28.97,64.57-64.57s-28.97-64.57-64.57-64.57h-369.97c-65.42,0-118.64-53.22-118.64-118.64s53.22-118.64,118.64-118.64h99.66c25.43,0,47.41-14.81,57.93-36.23h-10.23c-9.7,16.27-27.42,27.22-47.7,27.22h-99.66c-70.39,0-127.65,57.26-127.65,127.65s57.26,127.65,127.65,127.65h369.97c30.64,0,55.56,24.93,55.56,55.56s-24.93,55.56-55.56,55.56h-362.72c1.47,2.95,2.86,5.95,4.14,9.01h358.58Z"/>
          <path class="cls-7" d="m1398.73,189.41h-369.97c-19.05,0-34.54-15.49-34.54-34.54s15.49-34.54,34.54-34.54h99.66c72.28,0,132.66-51.87,145.93-120.33h-9.16c-13.13,63.47-69.46,111.32-136.76,111.32h-99.66c-24.02,0-43.55,19.54-43.55,43.55s19.53,43.55,43.55,43.55h369.97c77.01,0,139.66,62.65,139.66,139.66s-62.65,139.66-139.66,139.66h-347.17v9.01h347.17c81.98,0,148.67-66.69,148.67-148.67s-66.69-148.67-148.67-148.67Z"/>
          <path class="cls-4" d="m1051.56,465.73h347.17c70.38,0,127.65-57.26,127.65-127.65s-57.27-127.65-127.65-127.65h-369.97c-30.64,0-55.56-24.92-55.56-55.56s24.92-55.56,55.56-55.56h99.66c60.64,0,111.51-42.52,124.44-99.31h-9.25c-12.74,51.77-59.54,90.3-115.19,90.3h-99.66c-35.61,0-64.57,28.97-64.57,64.57s28.97,64.57,64.57,64.57h369.97c65.41,0,118.64,53.22,118.64,118.64s-53.22,118.64-118.64,118.64h-347.25c.02,1,.08,2,.08,3v6.01Z"/>
          <rect class="cls-8" width="1750" height="1000"/>
        </g>
      </g>
    </g>
  </g>
</svg>