<?xml version="1.0" encoding="utf-8"?>
<!-- Generator: Adobe Illustrator 27.4.1, SVG Export Plug-In . SVG Version: 6.00 Build 0)  -->
<svg version="1.1" xmlns="http://www.w3.org/2000/svg" xmlns:xlink="http://www.w3.org/1999/xlink" x="0px" y="0px"
	 viewBox="0 0 425.9 357.4" style="enable-background:new 0 0 425.9 357.4;" xml:space="preserve">
<style type="text/css">
	.st0{fill:#231F20;}
	.st1{clip-path:url(#SVGID_00000014614692922538617810000018408353268092017060_);}
	.st2{clip-path:url(#SVGID_00000155118377727986837750000010937594885159434657_);}
	.st3{clip-path:url(#SVGID_00000046325515068187212380000013309613755323987373_);}
	.st4{clip-path:url(#SVGID_00000083789633428523913320000002848011827587229369_);}
	.st5{clip-path:url(#SVGID_00000083065386744031745160000017449712851733128354_);}
	.st6{clip-path:url(#SVGID_00000102513530158643464370000002116387348483086502_);}
	.st7{clip-path:url(#SVGID_00000090974430854379946420000009840093069021215379_);}
	.st8{clip-path:url(#SVGID_00000178925824353335346870000000218988178237036966_);}
	.st9{clip-path:url(#SVGID_00000079474853552506235620000015160883364479115927_);}
	.st10{clip-path:url(#SVGID_00000091013346937814924430000012810986970004268185_);}
	.st11{clip-path:url(#SVGID_00000005947304350872413360000012594345118376895662_);}
	.st12{clip-path:url(#SVGID_00000098941582303476020650000015920547230088569015_);}
	.st13{clip-path:url(#SVGID_00000010310743956916012270000015621573838868888732_);}
	.st14{clip-path:url(#SVGID_00000148659230674119398350000011975998895677555336_);}
	.st15{fill:none;}
	.st16{fill:#FFFFFF;}
	.st17{font-family:'IBMPlexSans-Regular';}
	.st18{font-size:36px;}
</style>
<g id="Layer_3">
	<rect class="st0" width="425.9" height="357.4"/>
</g>
<g id="Layer_2_00000156561965943094621650000010236003449971773078_">
	<g>
		<g id="Layer_8">
			<g>
				<g>
					<defs>
						<path id="SVGID_1_" d="M204.1,137.3c10.9,8.2,15.7,21.5,13.6,34H264c10.8-23.6,4.1-52.4-17.6-68.6
							c-25-18.7-60.4-13.6-79.1,11.3c-6.4,8.6-10,18.4-11,28.3C168.4,128.6,189.2,126.2,204.1,137.3L204.1,137.3L204.1,137.3z"/>
					</defs>
					<clipPath id="SVGID_00000160191055585873605220000014783666898593310901_">
						<use xlink:href="#SVGID_1_"  style="overflow:visible;"/>
					</clipPath>
					<g style="clip-path:url(#SVGID_00000160191055585873605220000014783666898593310901_);">
						<g>
							<defs>
								<rect id="SVGID_00000155846190766698185530000016601737478843695250_" x="153.6" y="88.7" width="118.2" height="85.4"/>
							</defs>
							<clipPath id="SVGID_00000126315787085206498290000004050800271206447792_">
								<use xlink:href="#SVGID_00000155846190766698185530000016601737478843695250_"  style="overflow:visible;"/>
							</clipPath>
							<g style="clip-path:url(#SVGID_00000126315787085206498290000004050800271206447792_);">
								
									<image style="overflow:visible;enable-background:new    ;" width="450" height="325" xlink:href="EF429C3FFB1ADACF.png"  transform="matrix(0.263 0 0 0.263 153.5759 88.6902)">
								</image>
							</g>
						</g>
					</g>
				</g>
				<g>
					<defs>
						<path id="SVGID_00000040534077222746843270000009942759176297721480_" d="M237.2,210.1c6.3,13.7,22.5,19.8,36.2,13.5
							c8.1-3.7,13.6-11,15.3-19.1h-53.4C235.8,206.4,236.4,208.2,237.2,210.1L237.2,210.1L237.2,210.1z"/>
					</defs>
					<clipPath id="SVGID_00000039854637345684315640000000832322485787654784_">
						<use xlink:href="#SVGID_00000040534077222746843270000009942759176297721480_"  style="overflow:visible;"/>
					</clipPath>
					<g style="clip-path:url(#SVGID_00000039854637345684315640000000832322485787654784_);">
						<g>
							<defs>
								<rect id="SVGID_00000072970482960556636510000017276389075486353591_" x="232.6" y="201.7" width="58.9" height="27"/>
							</defs>
							<clipPath id="SVGID_00000064335728115195348990000003947835022955231381_">
								<use xlink:href="#SVGID_00000072970482960556636510000017276389075486353591_"  style="overflow:visible;"/>
							</clipPath>
							<g style="clip-path:url(#SVGID_00000064335728115195348990000003947835022955231381_);">
								
									<image style="overflow:visible;enable-background:new    ;" width="225" height="103" xlink:href="EF429C3FFB1ADACD.png"  transform="matrix(0.2624 0 0 0.2624 232.6208 201.8164)">
								</image>
							</g>
						</g>
					</g>
				</g>
				<g>
					<defs>
						<path id="SVGID_00000125575731791411123630000001495060273335157132_" d="M156.4,142.4c-0.6,0.6-1.1,1.3-1.6,2
							c-6,8-8.1,17.8-6.5,27h12.9C157,162.3,155.4,152.3,156.4,142.4L156.4,142.4z"/>
					</defs>
					<clipPath id="SVGID_00000065765799486887561860000007398480680759456672_">
						<use xlink:href="#SVGID_00000125575731791411123630000001495060273335157132_"  style="overflow:visible;"/>
					</clipPath>
					<g style="clip-path:url(#SVGID_00000065765799486887561860000007398480680759456672_);">
						<g>
							<defs>
								<rect id="SVGID_00000103263388958662678840000009906968482844113801_" x="145" y="139.7" width="18.9" height="34.4"/>
							</defs>
							<clipPath id="SVGID_00000008142052432994287340000018037812248730842034_">
								<use xlink:href="#SVGID_00000103263388958662678840000009906968482844113801_"  style="overflow:visible;"/>
							</clipPath>
							<g style="clip-path:url(#SVGID_00000008142052432994287340000018037812248730842034_);">
								
									<image style="overflow:visible;enable-background:new    ;" width="74" height="132" xlink:href="EF429C3FFB1ADAD3.png"  transform="matrix(0.26 0 0 0.26 144.8828 139.6789)">
								</image>
							</g>
						</g>
					</g>
				</g>
				<g>
					<defs>
						<path id="SVGID_00000121973119519321275750000011365806015224850609_" d="M190.5,200c-9.7,2.1-20.1,0.2-28.7-6.2
							c-7.6-5.7-12.2-13.8-13.6-22.4h-23.7c-9.1,0-16.6,7.4-16.6,16.6l0,0c0,9.1,7.4,16.6,16.6,16.6h110.9c-0.3-1.5-0.5-3-0.6-4.5
							C220.8,205.9,204.8,206.1,190.5,200L190.5,200z"/>
					</defs>
					<clipPath id="SVGID_00000011737206594074275750000001017930520840644502_">
						<use xlink:href="#SVGID_00000121973119519321275750000011365806015224850609_"  style="overflow:visible;"/>
					</clipPath>
					<g style="clip-path:url(#SVGID_00000011737206594074275750000001017930520840644502_);">
						<g>
							<defs>
								<rect id="SVGID_00000038415507089988032820000012162058358689642166_" x="105.2" y="168.6" width="132.9" height="38.6"/>
							</defs>
							<clipPath id="SVGID_00000027568115472783706210000017592038509813202061_">
								<use xlink:href="#SVGID_00000038415507089988032820000012162058358689642166_"  style="overflow:visible;"/>
							</clipPath>
							<g style="clip-path:url(#SVGID_00000027568115472783706210000017592038509813202061_);">
								
									<image style="overflow:visible;enable-background:new    ;" width="506" height="148" xlink:href="EF429C3FFB1ADAD5.png"  transform="matrix(0.26 0 0 0.26 105.7343 168.6513)">
								</image>
							</g>
						</g>
					</g>
				</g>
				<g>
					<defs>
						<path id="SVGID_00000018921246808289467280000003569416197426573718_" d="M316.3,171.3H264c0,0,0,0,0,0.1
							c9.7,0.7,18.7,6.5,23,15.9c2.5,5.6,3.1,11.6,1.9,17.1h27.5c9.1,0,16.6-7.4,16.6-16.6l0,0C332.9,178.8,325.4,171.3,316.3,171.3
							L316.3,171.3L316.3,171.3z"/>
					</defs>
					<clipPath id="SVGID_00000012473274700736877690000009241200319987509409_">
						<use xlink:href="#SVGID_00000018921246808289467280000003569416197426573718_"  style="overflow:visible;"/>
					</clipPath>
					<g style="clip-path:url(#SVGID_00000012473274700736877690000009241200319987509409_);">
						<g>
							<defs>
								<rect id="SVGID_00000072970030445642046660000011671380902972031665_" x="261.2" y="168.6" width="74.4" height="38.6"/>
							</defs>
							<clipPath id="SVGID_00000170236682698174124590000014969081130124590759_">
								<use xlink:href="#SVGID_00000072970030445642046660000011671380902972031665_"  style="overflow:visible;"/>
							</clipPath>
							<g style="clip-path:url(#SVGID_00000170236682698174124590000014969081130124590759_);">
								
									<image style="overflow:visible;enable-background:new    ;" width="281" height="145" xlink:href="EF429C3FFB1ADAD7.png"  transform="matrix(0.2645 0 0 0.2645 261.0779 168.6881)">
								</image>
							</g>
						</g>
					</g>
				</g>
				<g>
					<defs>
						<path id="SVGID_00000051354662866583398360000017623358617283040912_" d="M250.7,173.8c-10.4,4.8-16.4,15.3-15.9,26.1
							c8.8-3.8,16.8-9.8,23-18.1c2.5-3.3,4.5-6.8,6.2-10.4C259.6,171.1,255,171.9,250.7,173.8L250.7,173.8L250.7,173.8z"/>
					</defs>
					<clipPath id="SVGID_00000162333502218171287960000005904829181935515541_">
						<use xlink:href="#SVGID_00000051354662866583398360000017623358617283040912_"  style="overflow:visible;"/>
					</clipPath>
					<g style="clip-path:url(#SVGID_00000162333502218171287960000005904829181935515541_);">
						<g>
							<defs>
								<rect id="SVGID_00000116943475464259172770000010403239401888588174_" x="232" y="168.6" width="34.7" height="34.1"/>
							</defs>
							<clipPath id="SVGID_00000060009117591484795140000015706399736582452372_">
								<use xlink:href="#SVGID_00000116943475464259172770000010403239401888588174_"  style="overflow:visible;"/>
							</clipPath>
							<g style="clip-path:url(#SVGID_00000060009117591484795140000015706399736582452372_);">
								
									<image style="overflow:visible;enable-background:new    ;" width="132" height="129" xlink:href="EF429C3FFB1ADAD4.png"  transform="matrix(0.2615 0 0 0.2615 231.9649 168.5652)">
								</image>
							</g>
						</g>
					</g>
				</g>
				<g>
					<defs>
						<path id="SVGID_00000041989026763563452850000017725302514483828362_" d="M211.2,186.7c3.5-4.7,5.7-9.9,6.6-15.3h-56.6
							c3.8,8.4,9.7,15.9,17.6,21.8c3.7,2.8,7.7,5.1,11.8,6.8C198.5,198.2,205.9,193.7,211.2,186.7L211.2,186.7L211.2,186.7z"/>
					</defs>
					<clipPath id="SVGID_00000096035687243454188910000008560861742918636954_">
						<use xlink:href="#SVGID_00000041989026763563452850000017725302514483828362_"  style="overflow:visible;"/>
					</clipPath>
					<g style="clip-path:url(#SVGID_00000096035687243454188910000008560861742918636954_);">
						<g>
							<defs>
								<rect id="SVGID_00000023967037522690259660000011717115683546966914_" x="158.4" y="168.6" width="62.1" height="34.1"/>
							</defs>
							<clipPath id="SVGID_00000040564958816661650940000018187480464699428992_">
								<use xlink:href="#SVGID_00000023967037522690259660000011717115683546966914_"  style="overflow:visible;"/>
							</clipPath>
							<g style="clip-path:url(#SVGID_00000040564958816661650940000018187480464699428992_);">
								
									<image style="overflow:visible;enable-background:new    ;" width="236" height="128" xlink:href="EF429C3FFB1ADADC.png"  transform="matrix(0.2636 0 0 0.2636 158.3205 168.7508)">
								</image>
							</g>
						</g>
					</g>
				</g>
			</g>
		</g>
	</g>
</g>
<g id="Layer_4">
	<rect x="126.6" y="216.1" class="st15" width="193.9" height="55.3"/>
	<text transform="matrix(1 0 0 1 147.6577 242.7189)" class="st16 st17 st18">DESIGNS</text>
</g>
</svg>
