<?xml version="1.0" encoding="UTF-8"?>
<svg id="Layer_2" data-name="Layer 2" xmlns="http://www.w3.org/2000/svg" width="1.94in" height="1.92in" viewBox="0 0 139.41 138.39">
  <defs>
    <style>
      .cls-1 {
        fill: #f09c28;
      }

      .cls-2 {
        fill: #9ec8ea;
      }

      .cls-3 {
        fill: #e24f9b;
      }
    </style>
  </defs>
  <g id="Layer_1-2" data-name="Layer 1-2">
    <g id="Outlines">
      <g>
        <g>
          <path class="cls-3" d="m126.44,83.28v27.39c0,9.24-2.48,16.17-7.44,20.79s-12.23,6.93-21.81,6.93h-11.67c-9.58,0-16.85-2.31-21.81-6.93-4.96-4.62-7.44-11.55-7.44-20.79v-8.79H8.1v-18.6h118.35,0Zm-53.26,27.39c0,3.04.84,5.33,2.54,6.85,1.69,1.52,4.56,2.28,8.62,2.28h14.03c4.06,0,6.93-.76,8.62-2.28s2.54-3.8,2.54-6.85v-8.79h-36.35s0,8.79,0,8.79Z"/>
          <path class="cls-3" d="m126.44,83.28v27.39c0,9.24-2.48,16.17-7.44,20.79s-12.23,6.93-21.81,6.93h-11.67c-9.58,0-16.85-2.31-21.81-6.93-4.96-4.62-7.44-11.55-7.44-20.79v-8.79H8.1v-18.6h118.35,0Zm-53.26,27.39c0,3.04.84,5.33,2.54,6.85,1.69,1.52,4.56,2.28,8.62,2.28h14.03c4.06,0,6.93-.76,8.62-2.28s2.54-3.8,2.54-6.85v-8.79h-36.35s0,8.79,0,8.79Z"/>
          <path class="cls-3" d="m126.44,83.28v27.39c0,9.24-2.48,16.17-7.44,20.79s-12.23,6.93-21.81,6.93h-11.67c-9.58,0-16.85-2.31-21.81-6.93-4.96-4.62-7.44-11.55-7.44-20.79v-8.79H8.1v-18.6h118.35,0Zm-53.26,27.39c0,3.04.84,5.33,2.54,6.85,1.69,1.52,4.56,2.28,8.62,2.28h14.03c4.06,0,6.93-.76,8.62-2.28s2.54-3.8,2.54-6.85v-8.79h-36.35s0,8.79,0,8.79Z"/>
        </g>
        <g>
          <path class="cls-3" d="m0,64.93v-32.26C0,21.78,2.92,13.61,8.76,8.17,14.61,2.72,23.17,0,34.45,0h13.74c11.29,0,19.85,2.72,25.69,8.17,5.84,5.45,8.76,13.61,8.76,24.5v10.36h56.76v21.91H0Zm62.73-32.27c0-3.58-1-6.27-2.99-8.07-1.99-1.79-5.38-2.69-10.16-2.69h-16.53c-4.78,0-8.17.9-10.16,2.69s-2.99,4.48-2.99,8.07v10.36h42.82v-10.36h.01Z"/>
          <path class="cls-3" d="m62.05,47.48c-2.14,2.72-5.16,4.08-9.06,4.08h-26.82c-3.9,0-6.92-1.36-9.06-4.08-2.14-2.72-3.21-6.67-3.21-11.86s1.07-9.13,3.21-11.86c2.14-2.72,5.16-4.08,9.06-4.08h5.28v10.23h-5.78c-3.09,0-4.64,1.8-4.64,5.41s1.55,5.41,4.64,5.41h27.89c3.04,0,4.57-1.8,4.57-5.41s-1.52-5.41-4.57-5.41h-7.63v-10.23h7.06c3.9,0,6.92,1.36,9.06,4.08s3.21,6.68,3.21,11.86-1.07,9.14-3.21,11.86Z"/>
        </g>
      </g>
      <circle class="cls-3" cx="94.61" cy="64.93" r="16.82"/>
    </g>
    <g id="Outlines-2">
      <g>
        <path class="cls-1" d="m126.44,83.28v27.39c0,9.24-2.48,16.17-7.44,20.79s-12.23,6.93-21.81,6.93h-11.67c-9.58,0-16.85-2.31-21.81-6.93-4.96-4.62-7.44-11.55-7.44-20.79v-8.79H8.1v-18.6h118.35,0Zm-53.26,27.39c0,3.04.84,5.33,2.54,6.85,1.69,1.52,4.56,2.28,8.62,2.28h14.03c4.06,0,6.93-.76,8.62-2.28s2.54-3.8,2.54-6.85v-8.79h-36.35s0,8.79,0,8.79Z"/>
        <g>
          <path class="cls-2" d="m0,64.93v-32.26C0,21.78,2.92,13.61,8.76,8.17,14.61,2.72,23.17,0,34.45,0h13.74c11.29,0,19.85,2.72,25.69,8.17,5.84,5.45,8.76,13.61,8.76,24.5v10.36h56.76v21.91H0Zm62.73-32.27c0-3.58-1-6.27-2.99-8.07-1.99-1.79-5.38-2.69-10.16-2.69h-16.53c-4.78,0-8.17.9-10.16,2.69s-2.99,4.48-2.99,8.07v10.36h42.82v-10.36h.01Z"/>
          <path class="cls-3" d="m62.05,47.48c-2.14,2.72-5.16,4.08-9.06,4.08h-26.82c-3.9,0-6.92-1.36-9.06-4.08-2.14-2.72-3.21-6.67-3.21-11.86s1.07-9.13,3.21-11.86c2.14-2.72,5.16-4.08,9.06-4.08h5.28v10.23h-5.78c-3.09,0-4.64,1.8-4.64,5.41s1.55,5.41,4.64,5.41h27.89c3.04,0,4.57-1.8,4.57-5.41s-1.52-5.41-4.57-5.41h-7.63v-10.23h7.06c3.9,0,6.92,1.36,9.06,4.08s3.21,6.68,3.21,11.86-1.07,9.14-3.21,11.86Z"/>
        </g>
      </g>
      <circle class="cls-3" cx="94.61" cy="64.93" r="16.82"/>
    </g>
  </g>
</svg>